<svg xmlns="http://www.w3.org/2000/svg" xmlns:xlink="http://www.w3.org/1999/xlink" width="500" zoomAndPan="magnify" viewBox="0 0 375 374.999991" height="500" preserveAspectRatio="xMidYMid meet" version="1.0"><defs><g/><clipPath id="af48b200ef"><path d="M 8.296875 8.296875 L 366.703125 8.296875 L 366.703125 366.703125 L 8.296875 366.703125 Z M 8.296875 8.296875 " clip-rule="nonzero"/></clipPath><clipPath id="c00d09163c"><path d="M 187.5 8.296875 C 88.527344 8.296875 8.296875 88.527344 8.296875 187.5 C 8.296875 286.472656 88.527344 366.703125 187.5 366.703125 C 286.472656 366.703125 366.703125 286.472656 366.703125 187.5 C 366.703125 88.527344 286.472656 8.296875 187.5 8.296875 Z M 187.5 8.296875 " clip-rule="nonzero"/></clipPath><clipPath id="7d299d3df3"><path d="M 13.328125 13.328125 L 361.613281 13.328125 L 361.613281 361.613281 L 13.328125 361.613281 Z M 13.328125 13.328125 " clip-rule="nonzero"/></clipPath><clipPath id="db24c08772"><path d="M 109.8125 109.8125 L 265.1875 109.8125 L 265.1875 265.1875 L 109.8125 265.1875 Z M 109.8125 109.8125 " clip-rule="nonzero"/></clipPath><clipPath id="5e02d63cd2"><path d="M 187.5 109.8125 C 144.59375 109.8125 109.8125 144.59375 109.8125 187.5 C 109.8125 230.40625 144.59375 265.1875 187.5 265.1875 C 230.40625 265.1875 265.1875 230.40625 265.1875 187.5 C 265.1875 144.59375 230.40625 109.8125 187.5 109.8125 Z M 187.5 109.8125 " clip-rule="nonzero"/></clipPath></defs><g clip-path="url(#af48b200ef)"><g clip-path="url(#c00d09163c)"><path fill="#0062d6" d="M 8.296875 8.296875 L 366.703125 8.296875 L 366.703125 366.703125 L 8.296875 366.703125 Z M 8.296875 8.296875 " fill-opacity="1" fill-rule="nonzero"/></g></g><g clip-path="url(#7d299d3df3)"><path fill="#ffffff" d="M 71.386719 310.644531 L 76.296875 305.738281 C 116.96875 300.265625 157.960938 317.722656 182.527344 350.425781 L 182.527344 356.6875 C 182.527344 359.433594 184.75 361.667969 187.507812 361.667969 C 190.253906 361.667969 192.488281 359.441406 192.488281 356.6875 L 192.488281 350.160156 C 217.042969 317.316406 257.808594 300.101562 298.574219 305.582031 L 303.484375 310.492188 C 304.089844 311.09375 304.816406 311.445312 305.582031 311.667969 L 305.878906 311.730469 C 307.5 312.109375 309.261719 311.75 310.523438 310.492188 C 311.78125 309.230469 312.140625 307.46875 311.761719 305.851562 L 311.699219 305.554688 C 311.476562 304.785156 311.125 304.058594 310.523438 303.453125 L 305.613281 298.546875 C 300.132812 257.78125 317.34375 217.015625 350.191406 192.457031 L 356.707031 192.457031 C 359.453125 192.457031 361.6875 190.234375 361.6875 187.476562 C 361.6875 184.730469 359.464844 182.496094 356.707031 182.496094 L 350.457031 182.496094 C 317.746094 157.917969 300.296875 116.9375 305.769531 76.265625 L 310.675781 71.359375 C 312.621094 69.410156 312.621094 66.265625 310.675781 64.320312 C 310 63.644531 309.167969 63.292969 308.308594 63.089844 C 306.679688 62.699219 304.90625 63.050781 303.636719 64.320312 L 298.730469 69.226562 C 258.054688 74.699219 217.066406 57.238281 192.496094 24.535156 L 192.496094 18.289062 C 192.496094 15.542969 190.273438 13.308594 187.519531 13.308594 C 184.773438 13.308594 182.539062 15.53125 182.539062 18.289062 L 182.539062 24.8125 C 157.972656 57.671875 117.203125 74.871094 76.4375 69.390625 L 71.53125 64.484375 C 70.925781 63.878906 70.199219 63.53125 69.429688 63.304688 L 69.132812 63.242188 C 67.515625 62.863281 65.765625 63.222656 64.492188 64.484375 C 63.234375 65.742188 62.875 67.503906 63.253906 69.125 L 63.316406 69.421875 C 63.539062 70.191406 63.890625 70.917969 64.492188 71.523438 L 69.402344 76.429688 C 74.882812 117.195312 57.671875 157.960938 24.824219 182.519531 L 18.308594 182.519531 C 15.550781 182.519531 13.328125 184.742188 13.328125 187.488281 C 13.328125 190.234375 15.550781 192.464844 18.308594 192.464844 L 24.566406 192.464844 C 57.28125 217.042969 74.726562 258.027344 69.257812 298.699219 L 64.351562 303.605469 C 63.078125 304.875 62.722656 306.648438 63.121094 308.277344 C 63.324219 309.140625 63.683594 309.96875 64.351562 310.644531 C 66.296875 312.589844 69.441406 312.589844 71.386719 310.644531 Z M 80.199219 87.226562 L 102.800781 109.828125 C 103.855469 123.8125 101.640625 137.941406 96.039062 151.230469 C 90.988281 163.214844 83.210938 173.941406 73.917969 182.507812 L 40.097656 182.507812 C 41.339844 181.382812 42.875 180.078125 44.035156 178.921875 C 68.128906 154.824219 81.335938 121.488281 80.199219 87.226562 Z M 204.144531 170.941406 C 204.710938 176.976562 206.800781 182.722656 210.261719 187.703125 C 208.664062 190.039062 207.25 192.507812 206.234375 195.234375 C 205.140625 198.183594 204.605469 201.214844 204.320312 204.269531 C 201.289062 204.554688 198.277344 205.089844 195.34375 206.175781 C 192.652344 207.179688 190.203125 208.582031 187.886719 210.160156 C 185.4375 208.4375 182.835938 206.921875 179.96875 205.855469 C 177.027344 204.761719 174.003906 204.226562 170.960938 203.941406 C 170.410156 198 168.371094 192.292969 164.988281 187.375 C 166.585938 185.039062 168.011719 182.570312 169.015625 179.84375 C 170.101562 176.914062 170.644531 173.902344 170.921875 170.871094 C 173.972656 170.59375 177.007812 170.050781 179.957031 168.953125 C 182.671875 167.949219 185.140625 166.535156 187.476562 164.9375 C 192.4375 168.339844 198.152344 170.386719 204.144531 170.941406 Z M 156.269531 192.464844 C 156.855469 193.265625 157.488281 194.035156 157.972656 194.90625 C 159.621094 197.835938 160.632812 201.0625 161.003906 204.414062 C 161.09375 205.253906 161.003906 206.113281 161.003906 206.964844 L 145.183594 222.78125 C 144.222656 218.191406 143.023438 213.621094 141.363281 209.144531 C 139.171875 203.253906 136.382812 197.710938 133.148438 192.476562 L 156.269531 192.476562 Z M 168.195312 213.839844 C 168.945312 213.847656 169.691406 213.746094 170.449219 213.839844 C 172.488281 214.0625 174.515625 214.441406 176.492188 215.179688 C 177.878906 215.691406 179.167969 216.359375 180.40625 217.085938 C 181.164062 217.527344 181.820312 218.109375 182.527344 218.621094 L 182.527344 241.847656 C 177.304688 238.621094 171.75 235.824219 165.859375 233.632812 C 161.382812 231.972656 156.8125 230.773438 152.222656 229.808594 Z M 192.476562 242.21875 L 192.476562 219.1875 C 193.398438 218.488281 194.300781 217.773438 195.304688 217.21875 C 198.222656 215.578125 201.453125 214.566406 204.792969 214.1875 C 205.570312 214.09375 206.367188 214.195312 207.15625 214.1875 L 222.925781 229.953125 C 218.335938 230.917969 213.765625 232.117188 209.289062 233.773438 C 203.492188 235.925781 197.652344 239.042969 192.476562 242.21875 Z M 214.226562 207.179688 C 214.238281 206.359375 214.136719 205.550781 214.226562 204.730469 C 214.453125 202.691406 214.84375 200.664062 215.570312 198.683594 C 216.03125 197.457031 216.644531 196.320312 217.269531 195.191406 C 217.8125 194.21875 218.507812 193.347656 219.164062 192.464844 L 242.226562 192.464844 C 239.050781 197.640625 235.9375 203.480469 233.773438 209.277344 C 232.117188 213.757812 230.917969 218.324219 229.953125 222.914062 Z M 218.808594 182.519531 C 218.253906 181.761719 217.648438 181.042969 217.179688 180.234375 C 215.457031 177.242188 214.410156 173.933594 214.023438 170.5 C 213.929688 169.679688 214.023438 168.839844 214.023438 168.011719 L 229.808594 152.222656 C 230.773438 156.8125 231.972656 161.382812 233.632812 165.859375 C 235.824219 171.75 238.609375 177.292969 241.847656 182.527344 L 218.808594 182.527344 Z M 206.914062 161.054688 C 206.132812 161.042969 205.355469 161.136719 204.585938 161.054688 C 201.195312 160.6875 197.9375 159.660156 194.976562 157.992188 C 194.09375 157.5 193.304688 156.855469 192.488281 156.25 L 192.488281 133.148438 C 197.710938 136.375 203.265625 139.171875 209.15625 141.363281 C 213.632812 143.023438 218.203125 144.222656 222.792969 145.183594 Z M 182.527344 132.757812 L 182.527344 156.136719 C 181.679688 156.761719 180.859375 157.417969 179.9375 157.929688 C 178.828125 158.542969 177.714844 159.148438 176.503906 159.601562 C 174.527344 160.335938 172.5 160.714844 170.460938 160.941406 C 169.640625 161.035156 168.832031 160.929688 168.011719 160.941406 L 152.078125 145.011719 C 156.667969 144.046875 161.238281 142.847656 165.714844 141.1875 C 171.515625 139.046875 177.355469 135.945312 182.527344 132.757812 Z M 161.003906 168.019531 C 160.992188 168.808594 161.085938 169.597656 161.003906 170.386719 C 160.625 173.738281 159.609375 176.976562 157.960938 179.90625 C 157.4375 180.828125 156.773438 181.65625 156.136719 182.519531 L 132.777344 182.519531 C 135.953125 177.34375 139.066406 171.503906 141.230469 165.707031 C 142.890625 161.230469 144.089844 156.660156 145.050781 152.070312 Z M 132.039062 212.597656 C 134.324219 218.746094 135.769531 225.046875 136.570312 231.386719 L 130.214844 237.738281 L 113.066406 254.890625 C 112.644531 242.953125 110.144531 231.070312 105.371094 219.738281 C 101.097656 209.597656 95.230469 200.476562 88.148438 192.464844 L 121.179688 192.464844 C 125.625 198.582031 129.324219 205.3125 132.039062 212.597656 Z M 137.253906 244.777344 L 143.605469 238.425781 C 149.949219 239.226562 156.261719 240.671875 162.398438 242.953125 C 169.679688 245.660156 176.414062 249.359375 182.527344 253.816406 L 182.527344 286.84375 C 174.515625 279.765625 165.386719 273.886719 155.253906 269.625 C 143.925781 264.847656 132.039062 262.347656 120.105469 261.929688 Z M 192.476562 287.195312 L 192.476562 254.214844 C 198.53125 249.828125 205.582031 245.761719 212.75 243.097656 C 218.898438 240.8125 225.199219 239.367188 231.542969 238.570312 L 255.042969 262.074219 C 243.109375 262.492188 231.222656 264.992188 219.894531 269.765625 C 209.871094 273.996094 200.4375 280.214844 192.476562 287.195312 Z M 244.941406 237.894531 L 238.589844 231.542969 C 239.390625 225.199219 240.835938 218.890625 243.117188 212.75 C 245.78125 205.582031 249.851562 198.53125 254.234375 192.476562 L 287.214844 192.476562 C 280.226562 200.4375 274.007812 209.871094 269.785156 219.902344 C 265.011719 231.234375 262.511719 243.117188 262.09375 255.054688 Z M 253.835938 182.519531 C 249.378906 176.402344 245.679688 169.671875 242.976562 162.386719 C 240.691406 156.238281 239.246094 149.9375 238.445312 143.597656 L 244.800781 137.246094 L 261.949219 120.09375 C 262.371094 132.03125 264.871094 143.914062 269.644531 155.246094 C 273.914062 165.386719 279.785156 174.507812 286.867188 182.519531 Z M 237.75 130.207031 L 231.398438 136.558594 C 225.054688 135.757812 218.746094 134.316406 212.609375 132.03125 C 205.324219 129.324219 198.59375 125.625 192.476562 121.171875 L 192.476562 88.128906 C 200.488281 95.207031 209.617188 101.089844 219.75 105.351562 C 231.082031 110.125 242.964844 112.625 254.902344 113.046875 Z M 182.527344 87.78125 L 182.527344 120.761719 C 176.472656 125.144531 169.425781 129.210938 162.253906 131.875 C 156.105469 134.160156 149.804688 135.605469 143.464844 136.40625 L 137.113281 130.050781 L 119.960938 112.902344 C 131.898438 112.480469 143.78125 109.980469 155.113281 105.207031 C 165.132812 100.988281 174.566406 94.769531 182.527344 87.78125 Z M 136.425781 143.441406 C 135.625 149.785156 134.179688 156.097656 131.898438 162.234375 C 129.234375 169.40625 125.164062 176.453125 120.78125 182.507812 L 87.800781 182.507812 C 94.789062 174.546875 101.007812 165.113281 105.226562 155.082031 C 110.003906 143.75 112.503906 131.867188 112.921875 119.929688 Z M 44.175781 195.910156 C 42.96875 194.699219 41.625 193.625 40.375 192.464844 L 74.226562 192.464844 C 83.582031 201.0625 91.121094 211.554688 96.203125 223.601562 C 101.796875 236.890625 104.007812 251.019531 102.964844 265.003906 L 92.933594 275.023438 L 80.34375 287.613281 C 81.480469 253.34375 68.285156 220.003906 44.175781 195.910156 Z M 179.085938 330.816406 C 154.988281 306.722656 121.640625 293.515625 87.382812 294.652344 L 99.972656 282.0625 L 109.980469 272.050781 C 123.96875 270.996094 138.09375 273.207031 151.382812 278.8125 C 163.421875 283.894531 173.921875 291.425781 182.519531 300.789062 L 182.519531 334.640625 C 181.371094 333.359375 180.296875 332.015625 179.085938 330.816406 Z M 196.0625 330.960938 C 194.90625 332.117188 193.605469 333.664062 192.476562 334.894531 L 192.476562 301.074219 C 201.050781 291.773438 211.769531 284.007812 223.753906 278.957031 C 237.042969 273.363281 251.171875 271.148438 265.15625 272.195312 L 287.757812 294.796875 C 253.507812 293.660156 220.167969 306.863281 196.0625 330.960938 Z M 294.804688 287.757812 L 282.214844 275.164062 L 272.203125 265.15625 C 271.148438 251.171875 273.363281 237.042969 278.964844 223.753906 C 284.019531 211.769531 291.792969 201.042969 301.085938 192.476562 L 334.90625 192.476562 C 333.664062 193.605469 332.128906 194.90625 330.972656 196.0625 C 306.875 220.160156 293.667969 253.496094 294.804688 287.757812 Z M 330.828125 179.074219 C 332.035156 180.285156 333.378906 181.359375 334.628906 182.519531 L 300.777344 182.519531 C 291.425781 173.921875 283.882812 163.429688 278.804688 151.382812 C 273.207031 138.09375 270.996094 123.96875 272.039062 109.980469 L 282.050781 99.972656 L 294.640625 87.382812 C 293.523438 121.632812 306.730469 154.980469 330.828125 179.074219 Z M 195.917969 44.167969 C 220.015625 68.265625 253.363281 81.46875 287.625 80.332031 L 265.023438 102.933594 C 251.039062 103.988281 236.910156 101.777344 223.621094 96.171875 C 211.582031 91.089844 201.082031 83.558594 192.488281 74.195312 L 192.488281 40.367188 C 193.632812 41.617188 194.710938 42.96875 195.917969 44.167969 Z M 178.941406 44.023438 C 180.101562 42.867188 181.402344 41.320312 182.527344 40.089844 L 182.527344 73.910156 C 173.953125 83.210938 163.238281 90.976562 151.25 96.027344 C 137.960938 101.621094 123.832031 103.835938 109.847656 102.789062 L 99.828125 92.78125 L 87.238281 80.1875 C 121.496094 81.328125 154.835938 68.121094 178.941406 44.023438 Z M 178.941406 44.023438 " fill-opacity="1" fill-rule="nonzero"/></g><g clip-path="url(#db24c08772)"><g clip-path="url(#5e02d63cd2)"><path fill="#ffffff" d="M 109.8125 109.8125 L 265.1875 109.8125 L 265.1875 265.1875 L 109.8125 265.1875 Z M 109.8125 109.8125 " fill-opacity="1" fill-rule="nonzero"/></g></g><g fill="#0062d6" fill-opacity="1"><g transform="translate(136.879611, 230.418111)"><g><path d="M 34.96875 27 C 29.476562 27 24.550781 25.914062 20.1875 23.75 C 15.820312 21.59375 12.378906 18.625 9.859375 14.84375 C 7.335938 11.0625 6.078125 6.789062 6.078125 2.03125 L 6.078125 -11.34375 C 6.078125 -12.0625 6.320312 -12.644531 6.8125 -13.09375 C 7.3125 -13.539062 7.875 -13.765625 8.5 -13.765625 L 18.5 -13.765625 C 19.21875 -13.765625 19.800781 -13.539062 20.25 -13.09375 C 20.695312 -12.644531 20.921875 -12.0625 20.921875 -11.34375 L 20.921875 2.03125 C 20.921875 4.90625 22.222656 7.3125 24.828125 9.25 C 27.441406 11.1875 30.820312 12.15625 34.96875 12.15625 L 66.28125 12.15625 C 70.507812 12.15625 73.90625 10.867188 76.46875 8.296875 C 79.03125 5.734375 80.3125 2.382812 80.3125 -1.75 C 80.3125 -5.175781 79.363281 -8.015625 77.46875 -10.265625 C 75.582031 -12.515625 72.976562 -13.953125 69.65625 -14.578125 L 28.890625 -22 C 24.390625 -22.8125 20.425781 -24.519531 17 -27.125 C 13.582031 -29.738281 10.90625 -32.957031 8.96875 -36.78125 C 7.039062 -40.601562 6.078125 -44.8125 6.078125 -49.40625 L 6.078125 -52.640625 C 6.078125 -58.304688 7.5625 -63.390625 10.53125 -67.890625 C 10.976562 -68.429688 11.203125 -69.0625 11.203125 -69.78125 C 11.203125 -70.5 10.976562 -71.128906 10.53125 -71.671875 C 7.5625 -76.171875 6.078125 -81.300781 6.078125 -87.0625 C 6.078125 -92.46875 7.359375 -97.238281 9.921875 -101.375 C 12.484375 -105.507812 15.96875 -108.769531 20.375 -111.15625 C 24.789062 -113.539062 29.65625 -114.734375 34.96875 -114.734375 L 66.28125 -114.734375 C 71.769531 -114.734375 76.695312 -113.472656 81.0625 -110.953125 C 85.425781 -108.429688 88.867188 -104.988281 91.390625 -100.625 C 93.910156 -96.257812 95.171875 -91.332031 95.171875 -85.84375 L 95.171875 -79.234375 C 95.171875 -78.609375 94.941406 -78.046875 94.484375 -77.546875 C 94.035156 -77.054688 93.453125 -76.8125 92.734375 -76.8125 L 82.75 -76.8125 C 82.113281 -76.8125 81.546875 -77.054688 81.046875 -77.546875 C 80.554688 -78.046875 80.3125 -78.609375 80.3125 -79.234375 L 80.3125 -85.84375 C 80.3125 -90.070312 79.03125 -93.46875 76.46875 -96.03125 C 73.90625 -98.601562 70.507812 -99.890625 66.28125 -99.890625 L 34.96875 -99.890625 C 30.726562 -99.890625 27.328125 -98.695312 24.765625 -96.3125 C 22.203125 -93.925781 20.921875 -90.800781 20.921875 -86.9375 C 20.921875 -83.332031 22 -80.425781 24.15625 -78.21875 C 26.320312 -76.019531 28.800781 -74.691406 31.59375 -74.234375 L 72.359375 -66.8125 C 79.191406 -65.550781 84.703125 -62.421875 88.890625 -57.421875 C 93.078125 -52.429688 95.171875 -46.472656 95.171875 -39.546875 L 95.171875 -32.125 C 95.171875 -27.082031 94.132812 -22.582031 92.0625 -18.625 C 91.96875 -18.269531 91.851562 -17.957031 91.71875 -17.6875 C 91.582031 -17.414062 91.515625 -17.097656 91.515625 -16.734375 C 91.515625 -16.460938 91.582031 -16.171875 91.71875 -15.859375 C 91.851562 -15.546875 91.96875 -15.207031 92.0625 -14.84375 C 94.132812 -10.976562 95.171875 -6.613281 95.171875 -1.75 C 95.171875 3.738281 93.882812 8.664062 91.3125 13.03125 C 88.75 17.394531 85.285156 20.8125 80.921875 23.28125 C 76.554688 25.757812 71.675781 27 66.28125 27 Z M 76.8125 -27.9375 C 77.082031 -27.851562 77.328125 -27.785156 77.546875 -27.734375 C 77.773438 -27.691406 77.976562 -27.671875 78.15625 -27.671875 C 79.414062 -27.671875 80.09375 -28.253906 80.1875 -29.421875 C 80.269531 -29.867188 80.3125 -30.316406 80.3125 -30.765625 C 80.3125 -31.222656 80.3125 -31.675781 80.3125 -32.125 L 80.3125 -39.546875 C 80.3125 -42.878906 79.363281 -45.671875 77.46875 -47.921875 C 75.582031 -50.171875 72.976562 -51.609375 69.65625 -52.234375 L 28.890625 -59.65625 C 28.441406 -59.75 27.988281 -59.863281 27.53125 -60 C 27.082031 -60.132812 26.632812 -60.25 26.1875 -60.34375 C 25.914062 -60.425781 25.507812 -60.46875 24.96875 -60.46875 C 23.894531 -60.46875 23.085938 -60.019531 22.546875 -59.125 C 21.460938 -57.226562 20.921875 -55.066406 20.921875 -52.640625 L 20.921875 -49.40625 C 20.921875 -46.070312 21.890625 -43.234375 23.828125 -40.890625 C 25.765625 -38.554688 28.351562 -37.117188 31.59375 -36.578125 L 72.359375 -29.15625 C 73.878906 -28.882812 75.363281 -28.476562 76.8125 -27.9375 Z M 76.8125 -27.9375 "/></g></g></g></svg>